<svg id="Layer_1" data-name="Layer 1" xmlns="http://www.w3.org/2000/svg" viewBox="0 0 511.66 511.69">
  <g>
    <path d="M34.33,1.32c-12.6,3.2-24.6,12.8-29.8,23.9-8.3,17.8-4.9,37.6,8.8,51.2,10.5,10.5,24.5,15.1,38.6,12.7,36.2-6.2,50.2-49.9,24.4-75.8A43.72,43.72,0,0,0,34.33,1.32Zm23.9,17c10.5,5.1,16.1,14.4,16.1,26.6,0,8.5-2.1,14.2-7.4,20.3-8.2,9.2-23.7,12.1-35.3,6.4a29.82,29.82,0,0,1-11.8-43C27.83,16,44.43,11.62,58.23,18.32Z" fill="#e07a5f"/>
    <path d="M165.83,80c-16.7,2.5-45.1,14.6-47.9,20.3-1.2,2.5-1.1,3.3.2,6.1,2.6,5.5,6.1,5.5,15.9.2a102.06,102.06,0,0,1,30.8-11.1c9.5-1.8,28.9-2.1,37.6-.5,24.9,4.4,47.8,17.6,63.4,36.6,11.5,13.9,15.6,15.4,31,11.5,33.6-8.7,70.7,3.6,92.3,30.8,5.2,6.5,15.6,25.5,15.7,28.6,0,1.7,6.3,7.6,9.5,8.9,1.7.7,7.1,1.6,12,2,25.2,2,45.2,13.3,58,32.5,24.4,36.7,11.2,86.3-28,105.6-15.2,7.4-16.6,7.6-55.8,8.3-33,.6-34.9.7-36.3,2.5a8.28,8.28,0,0,0,.5,9.7l1.9,2.4H401c32.1,0,34.9-.2,43.1-2.3a86.43,86.43,0,0,0,42.8-24.8c10.9-11.5,16.9-21.8,21.6-37.1,2.4-7.9,2.6-10.4,2.6-23.8s-.2-15.9-2.6-23.8c-5.1-16.5-12.5-28.5-25-40.3-15.3-14.7-32.9-22-56.8-23.9l-7.7-.7-1.7-4.6c-5-13.4-15.9-29.7-26.6-39.7-26-24-63.8-33.8-97.2-25a51.15,51.15,0,0,1-7.7,1.5c-1.1,0-3.9-2.6-6.9-6.4-17.1-21.5-42.6-36.8-71-42.6C197.43,78.82,176.83,78.32,165.83,80Z" fill="#e07a5f"/>
    <path d="M91.33,123c-15.2,16.8-27.5,49.5-27.5,73,0,5.3-.5,5.9-7.5,8.3-13.7,5-30.9,18.3-40,31.1-16.1,22.5-20.7,52.9-12,78.6A89,89,0,0,0,67,372.12c7.8,2,10.9,2.2,56.6,2.5,26.5.3,48.2.6,48.2.7s-.9,3.8-2.1,8.2c-3,11.3-3,29.7-.1,41.7a88.46,88.46,0,0,0,69.1,66.2c11.2,2.3,30.3,1.6,41.1-1.5,41.4-11.8,69.1-52.8,64-95-4.6-37.4-29.9-66.4-66.4-76.2-6.4-1.7-11-2.2-21.6-2.2-14.7,0-23.7,1.7-35.5,6.9-14.2,6.3-30.6,20-38.2,32.1l-2.8,4.4h-46.7c-27.9,0-49.8-.4-54.4-1.1-41.8-5.8-70.3-45.8-61.8-86.7,3.2-15.7,10.7-28.7,22.6-39.7,6.8-6.1,9.5-7.7,30.3-17.6,6.8-3.3,8.7-7.3,9.7-20.3,1.5-21.7,9.1-42.6,21.1-58.6,3.2-4.1,5.7-8.4,5.7-9.6,0-3.7-3.7-7.4-7.5-7.4C95.73,118.92,94.23,119.82,91.33,123Zm183,210.4c7,1.8,20.6,8.3,25,11.9l3,2.5-51.7,51.7-51.7,51.8-2-2.5c-3.8-4.5-10-17.5-12.2-25.5-2.7-10-3-25.7-.5-35.9,5.7-23.6,24-43.9,47-52.2C243.53,330.82,261.33,330,274.33,333.42Zm42.5,30.1c11.4,16.5,15.4,40.6,10.1,59.8-3.7,13.5-9.3,22.9-19.6,33.1-9.7,9.8-17.1,14.4-30,18.7-6,2-9,2.3-21.5,2.3s-15.5-.3-21.5-2.3c-7.6-2.6-18.6-8.1-22.4-11.3l-2.5-2,51.5-51.5c28.2-28.3,51.7-51.4,52.1-51.4S315.13,361,316.83,363.52Z" fill="#e07a5f"/>
    <path d="M168.33,201.22a50.13,50.13,0,0,0-36.7,40.5c-3.9,25,13.4,50.2,37.9,55.2,9.4,2,20.8.9,28.5-2.7,8.7-4.1,15.8-10.9,15.8-15.1a7.8,7.8,0,0,0-2-5.2c-3.3-3.3-7.4-2.6-13.3,2.3-6.6,5.3-12.5,7.1-21.5,6.5A33.65,33.65,0,0,1,149,263c-2.2-4.7-2.7-7-2.6-14.1,0-10.5,2.1-15.7,9.4-23.4s13.1-10.1,24.5-10.1c8.3,0,9.5.3,15.8,3.4,7.6,4,11,3.7,13.6-1.1,3.1-5.5-1.2-10.5-12.7-14.9C189.93,200.12,175.63,199.42,168.33,201.22Z" fill="#e07a5f"/>
    <path d="M260.93,201.52c-24.3,6.5-40.2,30.9-36.1,55.2,2.5,15.1,13,29.5,26.1,35.9,8,4,13.5,5.2,22.4,5.3,21.7,0,40.2-13.7,47.1-35,2.4-7.6,2.2-20.6-.4-28.7C312.13,209.62,285.53,194.92,260.93,201.52Zm27.2,16.7c6.8,3.4,13,10,16.5,17.5,2,4.5,2.6,7.2,2.6,13.2a34.14,34.14,0,0,1-46.1,31.9c-4.3-1.6-7.4-3.7-11.9-8.3-7.4-7.5-9.9-13.6-9.8-24.1a34.17,34.17,0,0,1,23.7-32.1C269.83,214.12,281.53,215,288.13,218.22Z" fill="#e07a5f"/>
    <path d="M350.83,257.82a24,24,0,0,0-15.4,13.3c-2.1,5-2,7,.5,10.2a6,6,0,0,0,5.3,2.6c3.6,0,5.8-1.8,8.4-7.1,3.5-6.8,12.3-5.4,13,2,.4,3.9-1.8,7.9-13.4,23.7-15.3,20.9-15.5,21.4-10.9,25.9,2.4,2.5,2.6,2.5,20.4,2.5h18l2-2.6c3.4-4.3,2.6-8.6-2-10.9-1.7-.9-5.7-1.5-10.4-1.5-4.1,0-7.5-.2-7.5-.5a96.36,96.36,0,0,1,6.3-9.3c3.4-4.8,7.2-10.3,8.4-12.3,4.6-8,5.7-16.6,3-23.1C372.63,261.32,360,255,350.83,257.82Z" fill="#e07a5f"/>
    <path d="M456.33,423.32a41.9,41.9,0,0,0-21,12.1c-17.8,17.7-17.8,45.3,0,63,25.8,25.9,69.5,11.8,75.7-24.4,2.4-14.1-2.2-28.1-12.7-38.6C487,424,471.43,419.52,456.33,423.32Zm23.9,17c10.5,5.1,16.1,14.4,16.1,26.6,0,8.5-2.1,14.2-7.4,20.3-8.2,9.2-23.7,12.1-35.3,6.4a29.82,29.82,0,0,1-11.8-43C449.83,438,466.43,433.62,480.23,440.32Z" fill="#e07a5f"/>
  </g>
</svg>
