<svg id="Layer_1" data-name="Layer 1" xmlns="http://www.w3.org/2000/svg" viewBox="0 0 511.5 511.88">
  <g>
    <path d="M251.2,1.4c-3,2.3-3.7,7.4-3.7,27.3V48H206.6c-22.5,0-41.7.3-42.6.6-3.8,1.5-4.5,5.5-4.5,26.9V96H119.8L112,65.2c-8.4-33.6-10.8-39.4-18.2-46.3a51.88,51.88,0,0,0-11.1-7.2L76,8.5H15.8l-4.9,3A27,27,0,0,0,3,19.4C.4,23.7,0,25.3,0,31.5s.4,7.8,3,12.1a27,27,0,0,0,7.9,7.9l4.9,3,22.6.5,22.6.5,42.6,167c39.1,153,43,167.7,46.9,175.3,7.5,14.8,21.4,26.2,38,31.4l7.5,2.3H345c143.3,0,149.1-.1,152.7-1.9,8.1-4,13.9-13,13.8-21.5a23.8,23.8,0,0,0-13.4-20.7L493,385H203.9l-4.4-2.3a19,19,0,0,1-6.6-5.4c-2.3-3.5-10.1-32.9-9-34,.6-.7,21.2-3.2,202.1-25.2,50.1-6.1,93.9-11.6,97.4-12.1,11.8-2,20.7-8.6,25.5-18.9,2.1-4.6,2.1-5,2.4-95.4l.2-90.7-2.4-2.5L506.6,96H455.5V4.9L453,2.5,450.6,0H351.8C270.2.1,252.7.3,251.2,1.4ZM440.5,55.5V96H435c-4.6,0-6,.4-8,2.5a6.91,6.91,0,0,0-.3,10.2l2.1,2.3h67.7v83.5c0,81.3-.1,83.7-2,87.5a17.52,17.52,0,0,1-9.3,8.3c-1.1.4-14.8,2.3-30.5,4.2s-57.9,7.1-93.7,11.4c-153,18.8-181.7,22.2-181.9,21.9s-10.3-39.7-22.5-87.8-22.7-88.3-23.2-89.2c-2.1-3.9-9.2-3.6-12.2.4l-2,2.7L147,262.7c15.2,59.8,28.6,111.6,29.6,115a33.45,33.45,0,0,0,16.7,19l5.7,2.8,147,.5c80.9.3,147.1.6,147.2.8,1.2,1.2,3.3,6.5,3.3,8.2,0,1.2-1.3,3.5-2.9,5.1l-2.9,2.9H346.8c-156.2,0-151.2.1-162.4-5.6-6.7-3.4-16.8-13-20.2-19.2a84.06,84.06,0,0,1-4.6-11.7c-1.1-3.9-20.7-80.4-43.6-170S74,46.2,73.3,44.7A8,8,0,0,0,70.4,41c-1-.6-12.1-1-25.3-1-24.9,0-27.6-.4-29.5-4.7-1.8-3.9-1.3-6.3,1.9-9.4l3-3,26.8.3,26.9.3,4.9,3c8.9,5.6,9.2,6.4,21.9,56,12.2,47.9,12.4,48.5,18.3,48.5,3.4,0,7.2-3.7,7.2-6.9a49.15,49.15,0,0,0-1.4-7.9l-1.4-5.2H402.6l2.4-2.5c1.4-1.3,2.5-3.1,2.5-3.9,0-2.8-2.2-6.4-4.7-7.5-1.6-.8-16.4-1.1-46.8-1.1H311.5V76.1c0-11.2-.5-21.1-1-22.8-1.7-4.8-4.1-5.3-26.5-5.3H263.5V15h177Zm-144,24V96h-122V63h122Z" fill="#e07a5f"/>
    <path d="M202.8,146.4l-2.8,2.4v69c0,66.4.1,69.1,1.9,71.1,1.3,1.4,3.1,2.1,5.7,2.1,7.3,0,6.9,3.9,6.9-73.6V148.1l-2.6-2C208.4,143.4,206.2,143.5,202.8,146.4Z" fill="#e07a5f"/>
    <path d="M250.8,146.4l-2.8,2.4v66c0,63.5.1,66.1,1.9,68.1,2.6,2.9,8.6,2.9,11.2,0,1.8-2,1.9-4.6,1.9-68.1v-66l-2.8-2.4c-1.5-1.3-3.7-2.4-4.7-2.4S252.3,145.1,250.8,146.4Z" fill="#e07a5f"/>
    <path d="M299.1,146.1l-2.6,2V275.9l2.6,2c3.5,2.7,5.7,2.6,9.1-.3l2.8-2.4V148.8l-2.8-2.4C304.8,143.5,302.6,143.4,299.1,146.1Z" fill="#e07a5f"/>
    <path d="M349.5,144.7a10.94,10.94,0,0,0-3.2,2.1c-1.7,1.4-1.8,5.6-1.8,62.2s.1,60.8,1.8,62.3a11.38,11.38,0,0,0,4.4,2.2c2.2.6,3.3.1,5.8-2.3l3-3V149.8l-2.9-2.9C353.7,144,352.4,143.6,349.5,144.7Z" fill="#e07a5f"/>
    <path d="M396.8,145a7.49,7.49,0,0,0-3.2,2.9c-1.5,2.7-1.5,113.5,0,116.2,2.5,4.8,10.5,4.4,12.8-.7,1.5-3.5,1.6-111.3,0-114.7a7.85,7.85,0,0,0-3.6-3.6C400,143.8,399.8,143.8,396.8,145Z" fill="#e07a5f"/>
    <path d="M444.8,145a7.49,7.49,0,0,0-3.2,2.9c-.8,1.3-1.1,19.6-1.1,55.9v53.9l2.3,2.1a6.91,6.91,0,0,0,10.2-.3l2.5-2.4V204.3c0-29-.3-53.8-.6-55.1a7.71,7.71,0,0,0-3.5-3.7C448.2,143.8,447.9,143.8,444.8,145Z" fill="#e07a5f"/>
    <path d="M148.8,450.8a30.35,30.35,0,0,0-17.5,15.9c-12.9,26.3,13.9,54.2,40.8,42.4a31.49,31.49,0,0,0,18.4-28.2c0-8.8-2.2-14.8-7.7-20.9C174,450.2,160.6,446.6,148.8,450.8Zm19.5,15.9c4.7,3.5,7.2,8.1,7.2,13.5,0,5.9-1.9,9.8-6.3,13.2-6.6,5-14.4,4.6-20.8-1.1-8.4-7.6-7.2-19.9,2.6-25.9,3.3-2,5-2.4,9.3-2.1A16.83,16.83,0,0,1,168.3,466.7Z" fill="#e07a5f"/>
    <path d="M468.5,451.2c-7.4,2.9-15,10.5-17.8,18.1a31.39,31.39,0,0,0,15.6,39.4c4.8,2.4,7,2.8,13.7,2.8s8.9-.4,13.7-2.8a33.12,33.12,0,0,0,15.1-15.6c3.4-7.2,3.1-18.8-.6-26.3A31.65,31.65,0,0,0,468.5,451.2Zm21,15.8c3.6,2.6,6.9,9,7,13.5,0,5.4-4,11.7-9,14.2-5.4,2.8-9.2,2.9-14.6.4-6.2-2.8-8.9-7.3-8.9-14.7,0-5,.5-6.6,2.7-9.6a24.11,24.11,0,0,1,6-5.2C477.3,463.3,485.2,463.9,489.5,467Z" fill="#e07a5f"/>
  </g>
</svg>
