<svg id="Layer_1" data-name="Layer 1" xmlns="http://www.w3.org/2000/svg" viewBox="0 0 442.58 443.55">
  <g>
    <path d="M173.58.64c-76.5,8.3-140,59.7-163.9,132.5A194.07,194.07,0,0,0,168.48,386c34.7,4.7,71.7-.7,104.4-15l9.7-4.3v8.2c0,31,23.1,60,53.5,67.2,10.7,2.5,27.5,1.6,38.4-2.1a71.28,71.28,0,0,0,43.8-43.8c2.5-7.5,2.8-9.4,2.8-22.2,0-11.7-.4-15.2-2.2-21-4.1-12.8-14.2-26.9-25.3-35l-4.9-3.6-.3-102.2-.3-102.2-2.7-5.7c-5.1-10.9-16.3-19.7-27.3-21.3-3.9-.6-4.9-1.4-10.3-8.4a189.09,189.09,0,0,0-46.2-42.7c-23.8-15.6-48.2-25.1-77-29.9C213.08.14,185.28-.66,173.58.64Zm46,13c3.6.5,9.7,1.6,13.6,2.4,6.9,1.5,7.1,1.7,8.2,5.3.6,2,3.2,6.1,5.7,8.9,3.5,4,4.6,5.9,4.3,8l-.3,2.8h-10c-8.7,0-10.7.3-15.5,2.6-7.4,3.5-13.6,9.2-20,18.5s-9,15.7-9,22.6c0,14,9.8,22,40.9,33.3,12.9,4.6,18.2,7.2,18.8,9.2,1.4,4-21.7,15.1-35,16.9-4.9.7-7.7-.7-19.4-9.7-4.3-3.3-7.6-5-10.5-5.4-13.2-1.9-47,14.4-59.1,28.5-8.2,9.6-12,28.4-8.2,39.9,4.2,12.9,12.7,17.2,40.5,20.6,6.3.8,14.3,2.4,17.7,3.7a38.65,38.65,0,0,1,24.3,24c2.1,5.7,2.3,8.9,3,34.8.8,29.9,1.6,35.8,6,43.3,2.8,4.7,9.7,8.2,14.8,7.4,5.4-.9,20.5-8.7,30.7-15.9,13-9.1,27.2-23.6,31.6-32.3,4.2-8.2,4.5-9.1,6.4-23.5a91.85,91.85,0,0,1,11.8-35.7l5.2-9.3.3,49.8.3,49.7-2.8,2a133.82,133.82,0,0,0-10.9,10.1c-6.4,6.3-9.1,10.1-12.4,16.6l-4.2,8.5-9.5,4.7a193.71,193.71,0,0,1-61.6,18.7c-15.4,1.8-43.5.6-57.8-2.5-56.4-12.1-103-48.4-127.4-99.1a182.79,182.79,0,0,1-7.9-139.8c4.5-12.9,14.1-32,15.7-31.3,13.9,5.9,27.2,6.1,38.3.6,5.4-2.7,9.5-6,20.9-17.4,12.7-12.7,14.7-14.3,19.8-15.9,6.5-2,10.7-5.8,14.2-12.7,1.3-2.6,3.2-5.1,4.2-5.4s7.6-.4,14.8,0c14.9.8,23-.5,36.6-5.7,20.5-7.9,24.4-18.7,11.1-30.7l-3.7-3.4,9.5.7C208.78,12.34,216,13,219.58,13.64Zm-41.9,2.9c9.8,4.9,14.9,8.7,14.9,11,0,2-7.3,5.5-19,9.2-6.7,2.1-9.1,2.3-23.5,2.1-8.9-.2-17.4.2-19.1.7-3.8,1.3-8,5.6-11.3,11.7-2.3,4.2-3.3,5-9.1,7.2s-8.2,4.1-21.5,17.1c-8.2,8-16.8,15.5-19,16.5-5,2.5-18.3,2.7-23.4.5L43.28,91l5.3-7a183.44,183.44,0,0,1,108.5-69.1c6.1-1.2,11.4-2.3,11.8-2.3S173.28,14.34,177.68,16.54Zm96,13.3a177.67,177.67,0,0,1,45.6,31c7.3,6.9,20.3,21.4,20.3,22.6,0,.3-2,1.7-4.6,3-6.2,3.3-13.8,11.9-16.6,18.9-2.2,5.5-2.3,6.9-2.8,46.2l-.5,40.5-6.6,11c-15.9,26.5-19.1,34.5-21.5,53.3-2.2,17.8-4.7,22.9-16.8,34.8-10.2,10-29.1,23.3-37.8,26.6l-5.2,2-1.7-2.1c-3.2-4-4.2-12-4.5-36.6-.2-26.1-1.3-34.3-5.9-44.3a48.14,48.14,0,0,0-28.8-26.1c-3.4-1.2-12.6-3-20.2-4.1-18.3-2.7-24.1-4.4-28.1-8.4-8-8-4.4-25.9,7.7-37,10.4-9.7,39.6-22.4,44.9-19.6,1.1.6,4.9,3.3,8.6,6,13.1,10,18.4,11,33.8,6.5,21.5-6.2,36.6-17,36.6-26,0-8.5-7.6-13.9-32-22.7-21.4-7.6-29.7-14-28.7-21.8.6-4.6,6.9-15.2,12.6-21.3,7-7.5,10.9-9.1,21-8.9s14.2-.9,17.5-4.9c5.1-6,5.3-15.4.5-22l-2-2.8,3.9,1.3C264.58,25.74,269.68,27.94,273.68,29.84Zm88.4,66.6A25.63,25.63,0,0,1,374,108l2.1,4,.3,103.9c.3,116.3-.5,105.2,7.7,110,10.2,6,21.3,21.9,24.4,35,1.7,6.8,1.5,20.9-.4,27.9-7.8,29.7-39.2,48.9-68.5,41.8a59.82,59.82,0,0,1-43.5-42.6c-6-23.4,4.4-49.4,25-62.4l6.5-4.1.2-104.3c.3-97.9.4-104.4,2.1-108.2a26.66,26.66,0,0,1,12.2-12.6C347.38,94,356.78,93.94,362.08,96.44Z" fill="#e07a5f"/>
    <path d="M69.48,138.44a92.13,92.13,0,0,0-11.5,4.9c-3.2,1.7-8.5,4-11.6,5.2-7.5,2.9-14.2,8.8-16.4,14.5-3.5,9.3,0,19.4,11.2,32.7l6.4,7.6-2.1,6.4c-1.7,5.5-1.9,7.1-1,10.6,2.9,10.5,29.3,30.9,44.5,34.3,16.1,3.6,24.1-7.4,19.2-26.2a112.26,112.26,0,0,0-6-14.9c-2.5-5.1-4.6-10.5-4.6-11.9s1.4-7.6,3-13.6C110.18,152.64,96,129.94,69.48,138.44Zm16.6,12.3c6.5,5.1,7.2,16.3,2.4,35.8-4,15.8-3.7,18.8,3.2,32.4,4.1,8.3,5.2,11.6,5.6,16.8.5,5.5.3,6.6-1.1,7.1-5.7,2.2-33.2-14.7-38.7-23.6-1.6-2.7-1.6-3.1.3-8.5,3.1-8.8,1.7-13-7.9-23.5-4.7-5.1-9.3-13.7-9.3-17.5,0-3.6,5.7-8.6,12-10.7a60.23,60.23,0,0,0,10-4.3c5.2-3,14.3-6.1,18.1-6.1A9.43,9.43,0,0,1,86.08,150.74Z" fill="#e07a5f"/>
    <path d="M349.58,132.84l-2.5,1.3-.3,103.1-.2,103.1-3.3.7c-9.1,2-18,9.6-22.6,19.4-3.5,7.4-3.6,20-.3,27.4,2.8,6.2,10.4,14.3,16.7,17.5,4.4,2.3,6.2,2.7,14.5,2.7s10.3-.4,15.1-2.6a36,36,0,0,0,16.8-16.8c3.5-7.5,3.8-21.1.5-28.2-4.1-8.8-12.6-16.4-21.2-19l-4.2-1.2V136.44l-2.5-2.4C353.28,131.14,353,131.14,349.58,132.84Zm9.2,219.9c5.5,1.6,12.3,7.9,14.4,13.3a22.56,22.56,0,0,1-10.5,27.7c-9.7,5.1-19.9,3.2-27.3-5-8.1-9-7.7-21.4,1.2-30.2C343,352,350.28,350.14,358.78,352.74Z" fill="#e07a5f"/>
    <path d="M402.28,129.34c-2.2,2.4-2.1,6.5.1,8.5,1.6,1.4,4.5,1.7,19,1.7,15.9,0,17.4-.2,19.2-2a6.92,6.92,0,0,0,2-4,6.92,6.92,0,0,0-2-4c-1.8-1.8-3.3-2-19.3-2C405.68,127.54,403.68,127.74,402.28,129.34Z" fill="#e07a5f"/>
    <path d="M403.78,168.54a6.58,6.58,0,0,0-3.4,7.2c1.1,4.2,3.8,4.8,21.4,4.8,15.5,0,17-.2,18.8-2a5.71,5.71,0,0,0-.1-8.6c-1.9-1.7-4-1.9-18.3-2.1C413.38,167.74,405.08,168,403.78,168.54Z" fill="#e07a5f"/>
    <path d="M402,211c-1.9,1.9-2.3,3.1-1.8,4.8,1.4,4.6,1.7,4.7,20.9,4.7,16.4,0,18.4-.2,19.8-1.8a5.66,5.66,0,0,0-.3-8.2c-1.8-1.8-3.3-2-19-2C404.68,208.54,404.48,208.54,402,211Z" fill="#e07a5f"/>
    <path d="M402.38,250.74c-2.7,2.2-3,5.3-.7,8.1l2,2.7h17.5c16.1,0,17.6-.2,19.4-2,2.5-2.5,2.6-6.2.2-8.3-1.6-1.5-4.5-1.7-19.3-1.7C409,249.54,403.48,249.94,402.38,250.74Z" fill="#e07a5f"/>
    <path d="M401.78,291.74c-1.7,1.7-1.5,7.3.5,8.9,2.1,1.8,31.4,2.6,35.6,1,4-1.5,5.4-5.3,3.3-8.6l-1.6-2.5h-18.3C408.38,290.54,402.58,290.94,401.78,291.74Z" fill="#e07a5f"/>
  </g>
</svg>
