<svg id="Layer_1" data-name="Layer 1" xmlns="http://www.w3.org/2000/svg" viewBox="0 0 512 511.66">
  <g>
    <path d="M25,1c-9,2.5-18.2,10.5-22.3,19.5C.5,25.12.5,25.92.5,82.22v57l2.7,5.7a33.06,33.06,0,0,0,28.1,19.6l6.7.5,3.6,6.8a43.7,43.7,0,0,0,31.9,22.7c6.6,1.1,8,.8,11.3-2.1,3-2.7,2.8-7.2-.4-13.8a34.86,34.86,0,0,1-3.2-9.6l-.5-4.3H95.4c14.3,0,14.8-.1,17.1-2.5,3.7-3.6,3.4-8.6-.6-11.9-3.1-2.6-3.1-2.6-22-2.6-22.3,0-24.1.5-26,7.3a34.8,34.8,0,0,0-.5,11.1l.6,7-2.1-2c-2.9-2.6-6.3-8.8-8.4-15.2-2.2-6.9-4.7-8.2-15.7-8.2-10.3,0-15-2.3-18.5-8.9l-2.3-4.4V82.62c0-34.1.4-52.7,1.1-54.6a19.68,19.68,0,0,1,9.6-9.9c2.7-1.2,16.5-1.4,76.2-1.4,49.1,0,73.9.3,75.8,1.1a19.68,19.68,0,0,1,5.7,3.7c5.3,4.9,5.6,7,5.6,33.2v24.2l2.9,2.9c3.8,3.8,7.4,3.8,11.2-.1l3-3L207.8,52l-.3-26.8-2.8-5.6c-3.2-6.7-10.9-14.2-17.5-17.2C182.5.22,182.3.22,106,0,47.6-.08,28.4.12,25,1Z" fill="#e07a5f"/>
    <path d="M326.8,44.52a34.06,34.06,0,0,0-21.4,22.9c-1.2,4.2-1.4,11-1.2,38l.3,32.8,2.6,5.6a37.41,37.41,0,0,0,16.1,16.6l5.3,2.8,51.4.3,51.4.3-.6,4.4a39.4,39.4,0,0,1-3.2,9.5c-3.2,6.4-3.3,10.9,0,14,2.2,2,3.1,2.2,9.4,1.8,13.7-1,26.7-9.8,33.5-22.7L474,164l6.7-.5a34,34,0,0,0,28.2-19.7l2.6-5.6v-70l-2.7-5.7a37.33,37.33,0,0,0-16.3-16.8l-5-2.5-78-.2C337.9,42.82,331.1,42.92,326.8,44.52ZM486.4,62a17.42,17.42,0,0,1,6.3,6.6c2.3,4.3,2.3,4.9,2.3,34.4,0,28.5-.1,30.3-2.1,34.4-3.2,6.7-8.5,9.3-18.8,9.3-10.9,0-13.4,1.3-15.6,8.2-2.1,6.4-5.5,12.6-8.4,15.2l-2.1,2,.6-7a34.8,34.8,0,0,0-.5-11.1c-2.1-7.6,0-7.3-60.7-7.3H333.7l-4.3-2.5a15.35,15.35,0,0,1-6.3-6.8c-2-4.1-2.1-5.9-2.1-34.4,0-29.5,0-30.1,2.3-34.4a17.42,17.42,0,0,1,6.3-6.6l3.9-2.3h149Z" fill="#e07a5f"/>
    <path d="M378.5,96.92c-7.3,6.4.7,17.9,9.3,13.4,3.4-1.7,4.2-3.4,4.2-8.1C392,95.62,383.8,92.42,378.5,96.92Z" fill="#e07a5f"/>
    <path d="M430.5,97.22a7.52,7.52,0,0,0-2.5,5.7c.1,10.6,14.5,11.6,16.6,1.2.4-2.4,0-3.7-2.1-6.2C439.1,93.82,434.1,93.52,430.5,97.22Z" fill="#e07a5f"/>
    <path d="M56.4,50.12a6.79,6.79,0,0,0-2.8,6.1,6.79,6.79,0,0,0,2.8,6.1l2.7,2.4h89.8l2.7-2.4a7.82,7.82,0,0,0,0-12.2l-2.7-2.4H59.1Z" fill="#e07a5f"/>
    <path d="M58,100c-5.2,2.6-6,8.9-1.8,13.4,2.1,2.3,2.5,2.3,26.4,2.3s24.3,0,26.8-2.3a8,8,0,0,0-1.4-13.2C104.1,98.22,61.9,98,58,100Z" fill="#e07a5f"/>
    <path d="M224.1,101.82c-25,3.2-48.5,18.6-60.3,39.6-3.4,6-4.2,6.8-8.3,7.7-7.8,1.9-16.4,9.9-20.8,19.3-2.2,4.7-2.2,5.6-2.5,52.8-.2,26.4,0,49.5.3,51.3a7.5,7.5,0,0,0,3.8,5.3c3.7,2.2,7,1.8,10.4-1.3l2.2-2.1.3-49.1.3-49.1,2.4-3.8c2.5-4,8.4-7.7,12.5-7.7,5.3,0,7.6-2.1,12.3-11.3,10-19.3,28.2-31.9,50.5-34.7,4.5-.5,20-1,34.3-1,25.9,0,26.2,0,28.2-2.3,2.9-3.1,3.4-5.2,2.1-8.7-1.9-5.7-3.8-6-34-5.9C242.8,100.92,227.6,101.32,224.1,101.82Z" fill="#e07a5f"/>
    <path d="M366.1,181.32c-2.1,2.6-2.1,3.7-2.1,46.7,0,42.7-.1,44.2-2.1,48.4-1.2,2.4-3,4.8-4,5.4-1.8.9-1.9.2-1.9-25.4,0-20-.4-27.6-1.5-32-4.8-18.5-19.5-33.4-37.6-38.2-7.9-2.1-113.9-2.1-121.8,0-14.1,3.7-27.3,14.5-33.5,27.5-5.6,11.5-5.8,13.7-5.4,59.2.4,45.7.6,46.8,7.9,64.3,8,19.4,25.6,38.9,43.4,48.1,5.2,2.7,5.5,3.1,4.9,5.9-1,4.8-4.1,11.3-7.9,16.5-5.2,7.1-13.5,12.1-27.5,16.8l-12,4-2-2.8c-2.3-3.2-5-9.3-5-11.2,0-.7,2-2.4,4.5-3.7a32.16,32.16,0,0,0,7.6-5.9c2.5-2.8,3-4.1,2.5-6.5-.8-4-3.1-6.4-6.8-7.2-2.3-.6-4.2,0-8.6,2.8-12.5,7.6-20.3,10.3-33.4,11.3-29,2.3-57.5-18.7-65.4-48.1-1.2-4.4-1.7-12.6-2.1-31.5-.8-39.7,1.2-51.9,10.9-66.8,7.5-11.5,20.5-21.5,33.5-25.7,5.5-1.7,9.3-5.3,9.3-8.7s-2.9-7.7-5.7-8.4c-3.4-.9-9.9.8-18.2,4.7-19.3,8.9-35.1,26.6-42.2,47.3-4.2,12-5.2,25.1-4.6,57.6.5,30.2,1.4,35.7,7.6,49.4s19.6,28.7,31.4,35.5c3.2,1.8,5.7,3.8,5.7,4.4-.1,2.7-4.4,10.5-7.8,14-5,5.2-8.3,6.8-30.1,14.4-10.5,3.6-20.8,7.9-23.6,9.7C7.5,463,0,477.72,0,497c0,8.5.1,9,2.9,11.8,3.2,3.1,5.5,3.6,9.5,1.8,3.4-1.6,4.4-4.8,4.9-15.4.5-11.6,3.1-17.8,10.1-24.3,4.8-4.3,6.9-5.3,25.2-11.6,10.9-3.8,22.2-8.2,25.1-9.8,7.7-4.3,14.8-12.1,19.1-20.8l3.8-7.8c.1-.2,4.7.2,10.2.9a64.44,64.44,0,0,0,19.1.1c4.9-.7,9.7-1.5,10.5-1.8,1-.4,1.6-.1,1.6.7s1.3,4.1,2.8,7.4l2.8,5.9-8.9,4.4a58.76,58.76,0,0,0-31.1,37.8c-1,4-1.6,10.5-1.6,18.3,0,11.6.1,12.3,2.5,14.6,3.1,3.2,7.5,3.2,11.2.1,2.7-2.4,2.8-2.7,3.3-15.9.6-12.7.8-13.8,4-20.3,3.7-7.6,10.9-15.3,17.3-18.5,2.2-1.2,14.4-5.7,27.1-10.1s25.8-9.4,29.1-11.1c11.7-6.3,22.6-19.7,27-33.5,1.5-4.6,2.1-5.3,3.9-4.8,14.2,3.4,36.6,3.3,50.1-.4a101.09,101.09,0,0,0,73.7-84.1l1.3-9,5-2.3c7.4-3.4,12-7.9,15.7-15.4l3.3-6.7.3-45c.2-24.7,0-46-.3-47.3C378.9,178.52,370,176.32,366.1,181.32Zm-46.3,24.3a35.87,35.87,0,0,1,16.1,17l2.6,5.6v85l-3.2,9.5c-8.1,23.8-25.4,42.6-47.6,51.8-44.7,18.6-95.1-4.9-111-51.8l-3.2-9.5-.3-41.1c-.3-39.6-.2-41.2,1.8-46.6,4-10.6,11.5-18.2,21.8-22,4.3-1.6,9.8-1.7,60.7-1.5l56,.2Z" fill="#e07a5f"/>
    <path d="M405.9,216.92c-6.8,5.5-4.2,13.2,5.4,16.3a65.54,65.54,0,0,1,40.4,39.6c3.6,10.4,4.6,23.7,4,52.9-.6,28.4-1.2,32.4-7.4,45-5.3,10.9-17,22.3-28.4,27.8-21.8,10.5-43.7,9.2-64-3.9-2.5-1.6-5.8-2.9-7.3-2.9-3,0-7.5,3.9-7.7,6.7-.4,5.9,1.6,8.7,8.7,12.5,4.1,2.1,4.5,2.6,4,5.2-.8,4.1-5.4,11.6-7,11.6s-21-6.6-24.1-8.2c-1.1-.6-4.3-2.8-7.1-4.9-6.1-4.7-10.3-5.1-13.9-1.4a7.59,7.59,0,0,0-2.5,6.1c0,3,.7,4.3,4.2,7.4l4.1,3.9-4.2,5.5c-17.1,22.1-50.7,28.5-75.8,14.5-6.7-3.7-10.6-3.8-13.8-.3-3,3.3-3.2,7.3-.4,10.8,2.6,3.3,16.2,9.9,25.4,12.2,9.9,2.5,27.5,2.3,37.8-.4a79.57,79.57,0,0,0,44.8-32.2l1.7-2.5,19.3,6.5c10.7,3.6,22,7.7,25.1,9.2a41.8,41.8,0,0,1,19,19.5c2.9,6.1,3.2,7.9,3.8,20.2.6,13,.7,13.5,3.4,15.8,3.6,3,8,3,11.1-.2,2.4-2.3,2.5-3,2.5-14.7,0-7.9-.6-14.5-1.5-18.2a59.54,59.54,0,0,0-30.4-37.4c-4.6-2.3-8.9-4.2-9.7-4.2s-.5-1.8,1.6-6.2c1.7-3.5,3-6.9,3-7.6s.7-1.1,1.8-.8c9.6,2.9,23.7,3.2,35.8.7a82.42,82.42,0,0,0,57.4-45.4c6.1-12.9,7.2-19.6,7.7-48.7.8-42.2-1.5-56.8-11.7-74.2-5.1-8.7-19-22.8-27.3-27.7C421.6,217.72,409.3,214.22,405.9,216.92Z" fill="#e07a5f"/>
    <path d="M441.5,437.92c-3.1,1.7-4.5,3.9-4.5,7.3,0,5.7,1.8,6.8,22.6,14.1,18,6.3,20.2,7.3,24.9,11.6,7.1,6.5,9.7,12.7,10.2,24.3.5,10.6,1.5,13.8,4.9,15.4,4,1.8,6.3,1.3,9.5-1.8,2.8-2.8,2.9-3.3,2.9-11.8,0-15.6-4.7-27.6-14.6-37.5-6.9-6.9-11.5-9.2-33.3-16.8C445.8,436.42,444.7,436.12,441.5,437.92Z" fill="#e07a5f"/>
  </g>
</svg>
