<svg id="Layer_1" data-name="Layer 1" xmlns="http://www.w3.org/2000/svg" viewBox="0 0 1444.65 1567.61">
  <g>
    <path d="M1336,606.66c-16.27,12-21.76,11.4-20.75-5.89,1-17.86-10.52-18.88-21.3-27.3-1.26,18.07,25.07,32.53,4,49.25-13.71-4.35-18.1-16.51-22.13-28.1-31-89.36-91.68-158.1-155.72-224.51-8.52-8.85-19.4-16-19.47-30.25,13.11-11.65,29.41-14.07,45.92-15.87C1237.87,399.32,1305.23,490.72,1336,606.66Z" fill="#9a7b56"/>
    <g>
      <path d="M752.05,167.36c147.74,11.29,284,51.47,394.48,156.63-13.71,16.46-33.08,18.12-52.41,20.07-46.27-18.76-83.95-52.49-130.89-71.13C780.47,200.38,599.44,199.06,418.88,279a155.58,155.58,0,0,0-43.76,20.16c-20.36,12.4-40.67,25-63.69,32.12-111.12,72.8-190.89,167.5-211.79,303.27-19.6-6.43-18.16-22-16-37.52C98.06,495.9,152.22,418.09,226.27,351.33c118.1-106.46,255.2-169.43,414-184A422.63,422.63,0,0,0,752.05,167.36Z" fill="#9a7b56"/>
      <path d="M1194.38,1149.45c-169.87,185-521.32,275.94-792,116-33-19.47-68-36.07-94.16-65.46-4.89-33.24,18.4-30.32,39.28-30.62,51.08,25.19,95.52,61.72,150,81.68,222.83,81.64,426.81,45.35,615.5-93.9,13.94-10.28,26.5-22.67,43.45-28.28C1167.37,1138.82,1198.89,1110.88,1194.38,1149.45Z" fill="#9a7b56"/>
      <path d="M1194.38,1149.45c-1.61-6.43-.38-17.62-12.19-10.23-13.11,8.19-17.78,3.11-19.41-9.75-1.69-14.34,8.76-22.54,16.39-32.08,76.78-96,124.78-203.55,128.53-327.91,1.43-47.34-10.13-93.7-16.27-140.41,1.11-10.81,5.73-21.31.67-32.64-3.77-8.42-11.57-20.06,1.31-25.46,11.52-4.83,20.51,5.08,27.47,14.1,5.35,6.95-.29,21.58,15.09,21.59,45.82,131.64,28.88,259.25-29.69,382C1278.09,1047.69,1243.26,1103.92,1194.38,1149.45Z" fill="#9a7b56"/>
      <path d="M343.38,1175c-16.36,1.81-31.28,5.63-35.16,25-96.8-81-143-189.89-169.7-309.27-3.75-16.76-4.12-34.28-6.05-51.45,5.47-39.59,3.33-79.25,1.2-118.92,4-26.52,4.85-53.82,18.68-78,15,3.8,23.47,14.59,29.69,27.8.22,43.21-5.2,86.3-3.12,129.61,6.11,127.25,49.75,239,136.66,333.13C327.06,1145.36,343.06,1155.1,343.38,1175Z" fill="#9a7b56"/>
      <path d="M175.82,667.52C165,661.93,157.74,653,152.35,642.38,182,525,234.5,420.64,326,338.58c9.54-24.16,35.5-28.93,52.44-44.39,15.66-7.33,30.6-27,48.11-2.82,1.38,16.31-10.16,24.78-21.14,32.69C299,400.77,234.12,505.53,197.32,629.66,193.19,643.6,190.42,659.15,175.82,667.52Z" fill="#9a7b56"/>
      <path d="M133.67,720.37c7.91,39.73,10.21,79.39-1.2,118.92C128.4,799.61,128.26,760,133.67,720.37Z" fill="#9a7b56"/>
    </g>
    <path d="M752.05,167.36a195.34,195.34,0,0,1-111.79,0C677.52,164,714.79,164.55,752.05,167.36Z" fill="#9a7b56"/>
  </g>
  <g>
    <path d="M988,585.08c59.32,81.93,58.69,172.11,26.6,261.12C974.32,957.78,890.67,1027,777.5,1060c-13.12,3.83-31.18,9.23-39.86-4.79-9.81-15.85,7.55-25.85,17-35,81-78.47,103.23-171.13,71.61-279.15C814.6,701.23,805,660,816.09,617.75c16-15.49,24.38-44.23,58.29-24,11.24,6.71,32.49-11.54,48.63,2.81.29.25,2.54-.58,2.83-1.79C938.65,540.92,965.58,577.5,988,585.08Z" fill="#d12f37"/>
    <path d="M988,585.08l-52.82-8.69c-6.36,14.33,19.2,25.93,4.25,35.2-18.8,11.66-25.58-17.73-42.91-18.75-11.55,5.77-7,25.08-22.15,28.59-12.39-5.68-5.65-19-11.39-28.25-19.12,1.52-28.77,21.43-46.84,24.57C807.61,583,833.78,568.91,856,554.64c14-9,24.75-15.52,23.6-35-.93-15.72,4.88-35.33,24.9-31.49,26.8,5.15,6.88,20.27,2.59,31.51-6.19,16.2,6,15.73,16.08,18.59C950.26,545.88,980,550.54,988,585.08Z" fill="#85a54e"/>
  </g>
  <g>
    <path d="M722.3,565.28c42.55,2.45,60,29.72,67.23,75.12,10,63.25,4.83,126.51-2.68,189.53-5.11,43-7.65,86.52-20.82,128.25-8.72,14-18.45,27.63-16.8,45.47h0c-12.88,7.61-22.44,3-30.59-8-3.75-5-6.66-10.7-11.18-15.17-33.64-67.42-51.3-140.1-70-212.45-8.91-34.57-15.34-69.56-16.79-105.33a200.68,200.68,0,0,1,1.92-34c4.12-32.09,21.27-51.84,52.6-59.44,3.09-4.17,7.69-5.26,12.39-6.19a77.92,77.92,0,0,1,10.55-1.28C706.48,561.28,714.91,559.71,722.3,565.28Z" fill="#f47851"/>
    <path d="M688.52,567.37l-13.25,1.92c-11.67-21.11-26.83-40.23-36-62.76-2.4-5.9-4.86-12-5.92-18.18-1.64-9.57-5.11-20.73,6.85-26.28,10.55-4.9,17.23,2.45,23.22,10,1.26,1.58,3,2.8,5.56,5.17,1.78-8.7,3.36-16.4,4.93-24.1C682.92,468.45,693.67,552.56,688.52,567.37Z" fill="#98bc59"/>
    <path d="M722.3,565.28l-24.8,1.17c-9.47-38.22-1.28-75.29,7.33-112.34,4.27,7.53,4.43,16.63,19.44,14s16.1,13.09,15.78,24.66C739.36,518.13,728.2,541.09,722.3,565.28Z" fill="#98bc59"/>
    <path d="M704.83,454.11c1.66,37.72-6.87,74.78-7.33,112.35l-9,.91c-4.21-38.16-15.32-75.44-14.6-114.23,1.18-8.93,3.63-17.72,14.51-17.66C699.83,435.54,703.8,444,704.83,454.11Z" fill="#85a54e"/>
    <path d="M749.23,1003.65c-10.87-21.24-1.62-35,16.8-45.47C764.75,974.93,760.22,990.49,749.23,1003.65Z" fill="#ef742f"/>
  </g>
  <g>
    <path d="M543.14,581c50.12-8.88,78,18,98.83,68.78,29.07,70.76,40.47,145.71,49.12,221,5.9,51.39,14.94,102.67,11.14,154.8-6.28,18.68-13.83,37.2-7,57.48h0c-12.87,12.4-25.25,9.68-37.76-.85-5.74-4.83-10.69-10.6-17.16-14.55C582.67,998.63,542.11,919,500.5,840.07c-19.89-37.72-37-76.62-48.55-117.79-3.68-13.12-5.69-26.42-7.12-40-4.06-38.43,10.43-66.11,44.75-83.58,2.44-5.69,7.49-8.23,12.69-10.6a91.39,91.39,0,0,1,11.91-4.4C523.65,580.75,533,576.6,543.14,581Z" fill="#ff9769"/>
    <path d="M504.45,592.77l-14.87,5.89c-19.38-21.32-42.28-39.36-59.13-63-4.41-6.2-8.94-12.56-11.89-19.5-4.54-10.68-11.65-22.69.72-32.44,10.91-8.6,20.7-1.89,29.75,5.22,1.9,1.5,4.23,2.44,7.88,4.48-.32-10.6-.61-20-.9-29.36C470.68,479.35,506.35,574.15,504.45,592.77Z" fill="#98bc59"/>
    <path d="M543.14,581l-28.51,8.2c-21.54-41.82-22.23-87.16-22.43-132.59,7,7.57,9.72,18.1,26.45,10.9,16.88-7.26,22.31,10.78,25.13,24.31C550,521.54,543.32,551.3,543.14,581Z" fill="#98bc59"/>
    <path d="M492.2,456.65c12.32,43.38,12.62,88.8,22.43,132.6l-10.18,3.53C489,549.58,465.85,509.32,456,464c-1.1-10.71-.67-21.6,12-24.53C481.27,436.44,488.2,445.14,492.2,456.65Z" fill="#85a54e"/>
    <path d="M695.23,1083.12c-18.48-21.7-11.54-40.3,7-57.48C705.36,1045.46,704.38,1064.79,695.23,1083.12Z" fill="#ef742f"/>
  </g>
  <g>
    <path d="M269.37,1122.64c-9.73-3.26-16.78-9.57-30.14-3.05-55.41,27.05-111.35-5.93-115.26-67.22-1-15.34-3.78-22.38-20.21-25.75-34.26-7-54.4-31.16-61.39-64.12C35.83,931.61,44.65,903.24,70,883c12.25-9.78,15.5-15.6,6.32-30.8-20.73-34.31-14.51-74.79,12.28-105,23.79-26.87,63.87-38.08,98.55-22.93,17.62,7.7,24.5,3.22,35.18-10.07,26.06-32.44,64.37-40.89,101.8-22.39,16.33,8.07,22.29,4.2,31-10.33,32.39-53.69,106.74-52,135.22,3.18,7.47,14.48,16.22,18.76,31,21.48,48.69,8.94,76.36,53.78,62.53,101.58-3.77,13-1.9,19.89,8.29,27.9,26.5,20.85,32.8,49.81,22.25,79.7s-34,47.61-67.42,48.74c-1.57.89-3.42,3-4.56,2.69-33.39-9-46.42,12.44-56.79,37.87-13.34,7.82-26.53,15.93-40.58,22.5-11.3,3-21.66-3.89-34.9-3.08-.64,13.14-1.38,26.79-8.87,38.73-8.84,14.07-11.15,28.6-4.43,44.81,3,7.19,9.83,17.8-4.58,22.65-2.51-1.22-5.55-2.67-6.27-5.1-8-26.83-26.31-28.09-48.58-19.89-13.34,1.7-24.77-3.77-36.16-9.53-21.93-11.07-28.18-7.73-30.38,16.52C270.62,1115.77,271.51,1119.4,269.37,1122.64Z" fill="#85a54e"/>
    <path d="M393.07,1129.68c-7.63-30.88-10.42-60.79,9.84-89.16,3.75-5.24-.18-16-.59-24.44,15.52-2,28.8,5.31,42.93,8,13.2,4.13,16.16,19.26,28.39,26.19,11.16-14.61-.1-34.34,11-48.52,1.76-6,3.45-12,5.27-18,6.14-20.2,13-38.3,39.68-21.19,4.35,2.8,11.59,1.09,17.49,1.47-18.75,77.12-15.56,153.47,11.2,228,9.91,27.61,3.57,45.54-20.94,59.93-32.83,19.28-67.13,34.69-104.62,41.78-17.91,3.39-34.24,2.19-43.84-18.34-28-60-68.22-110.78-119.47-152.79-16.34-17.48-.93-29.88,7.52-42.8,5.49-8.4,11.18-1.51,15.79,2.29,12.28,10.12,26.09,16.48,41.94,18.36,13.65,5.72,23.73,16.13,33.5,26.58C376.15,1135.64,383.67,1138.85,393.07,1129.68Z" fill="#98bc59"/>
  </g>
  <g>
    <path d="M1166.38,721.44c39.13,42.75,51.33,96.86,57.36,151.12,17,153.38-34,278.35-165.61,364.23-56.27,36.69-119.37,49-185.28,30.28-60.25-17.14-101.89-56.39-116.48-117.81-14.55-61.25,8.72-112.39,53.75-154a236.88,236.88,0,0,1,41.12-30.74C933.76,916.39,997.63,854.85,1008,753.38c30.17-4,59.72-14.31,85.78,15.88,13.69,15.87,24.69.69,26.55-15.18,2-17.21,9.2-26.5,27.35-26.94C1154,727,1160.15,723.44,1166.38,721.44Z" fill="#786da0"/>
    <path d="M1166.38,721.44c-6.23,2-12.41,5.55-18.68,5.7-18.15.44-25.34,9.73-27.35,26.94-1.86,15.87-12.86,31-26.55,15.18-26.06-30.19-55.61-19.9-85.78-15.88-6.44-3.36-13-6.45-19.26-10.16-3.7-2.21-6.82-7-1.84-9.45,18.6-9.13,24.84-30.1,41-41.34,2.67-1.86,5.39-5,8.18-5.1,24.91-1,35.06-11,25.43-36.54-2.25-5.94,2.47-13,9.9-14.65s12.94,2.86,15.23,9.41c2.37,6.79,3,14.19,4.33,21.34.83,4.55.47,12.25,7.16,9.62,32.66-12.82,55.36,12.54,82.85,19.77C1180.46,707.69,1169.55,712.31,1166.38,721.44Z" fill="#98bc59"/>
  </g>
  <g>
    <path d="M835,1055.25c60.82,46.12,85.64,117.49,63.33,189.7-17.6,57-55.41,97.2-112.25,116.18-79.19,26.44-154.4,16.32-220.48-35.77-102.73-81-81.11-242.69,38-293.22,5.21,5.82,11.31,4.57,18,3,15.56-3.61,31.29-6.55,47-9.76,5-1,11.56-4.84,14.33,1.07,2.41,5.16-4.06,9.07-7.36,13-4.14,5-8.93,9.51-12.53,14.85-3.47,5.15-4.7,11.42.46,16.28,4.75,4.47,10.6,2.09,14.82-.9,9.66-6.84,18.94-14.27,27.94-22,20.74-17.75,20.61-17.86,33.33,6.62,4.83,9.31,10,23.48,21.32,19.1,8.83-3.42,4.19-17.83,2.34-27.67-.84-4.45-5.3-9.69-1.47-13.31,5.34-5,9.38,2,13.86,3.89C794.81,1044.65,811.52,1060.57,835,1055.25Z" fill="#e07a5f"/>
    <path d="M835,1055.25c-23.49,5.32-40.2-10.6-59.39-18.85-4.48-1.92-8.52-8.92-13.86-3.89-3.83,3.62.63,8.86,1.47,13.31,1.85,9.84,6.49,24.25-2.34,27.67-11.3,4.38-16.49-9.79-21.32-19.1-12.72-24.48-12.59-24.37-33.33-6.62-9,7.7-18.28,15.13-27.94,22-4.22,3-10.07,5.37-14.82.9-5.16-4.86-3.93-11.13-.46-16.28,3.6-5.34,8.39-9.86,12.53-14.85,3.3-4,9.77-7.89,7.36-13-2.77-5.91-9.33-2.1-14.33-1.07-15.66,3.21-31.39,6.15-47,9.76-6.7,1.56-12.8,2.81-18-3,23.34-25.33,54.38-33,86.71-35.87,23.06-2.07,22.93-1,21.11-24.92a131.56,131.56,0,0,1,1.25-30.13c1.31-8.39,2.86-18,15.51-17.52,12.2.5,19.11,7.07,20.12,18.47a95,95,0,0,1-5.53,42.1c-3.66,9.69-2.4,15,8.87,17.84C785.25,1010.47,812.35,1029.5,835,1055.25Z" fill="#98bc59"/>
  </g>
  <path d="M1177.84,388.14c-30.8-33.77-32.58-76.38-38.42-117.69-1.18-8.31-1.06-16.78-1.54-25.17q-.32-4.28-.61-8.53a1.89,1.89,0,0,0,.62-3c4-8.94,1.75-17.82-.81-26.69q-.43-5-.89-10a46,46,0,0,0-5.46-29.65c-.49-1.73-1-3.45-1.45-5.18.53-3.53-.25-6.38-4.14-7.63-2.65-14.85-16.92-25.38-16.91-44.9,91.55,23.66,176.48,54.65,226.92,140.88,24,41,21.61,84.36,5.84,127.21-3.78,10.24-8,20.3-12.09,30.44-5.92,3.09-5.29,14.05-15.65,13.38,2.45-57.54-12.71-108.49-50.94-152.25,26.07,57.16,34,116.62,29.91,177.92,4.59,25.59-13.83,47-12,72.59.59,8.37-10.36,3.47-13.63-.41-23.16-27.48-38.13-16.57-60.21,4.11-39.25,36.79-90.12,42.52-141.33,26.33-53.63-16.95-94.95-52.48-130.85-99.07,45.2,3.83,80-16,115.8-33.34,25.64-12.43,50.88-26.82,81.54-23.16l22.63,3.73-.14,0,18.66,8.3,13.54,8.25c10.1,10,22.34,18.44,25.81,33.43-61.61-19.82-90-19.64-105.45,1.78,61.26-11.59,110,18.34,161.26,49.59,2.2-14.69,3.67-27.07,6-39.28,1.78-9.31-1.22-13.94-10.78-16.45C1228.58,434.65,1202.52,412.37,1177.84,388.14Z" fill="#98bc59"/>
  <path d="M329.37,1228.56c6.43-1.61,17.62-.38,10.24-12.19-8.2-13.11-3.12-17.78,9.74-19.42,14.35-1.68,22.55,8.77,32.08,16.4,96,76.78,203.55,124.78,327.91,128.53,47.34,1.43,93.7-10.13,140.42-16.28,10.8,1.11,21.3,5.74,32.63.67,8.42-3.76,20.06-11.56,25.46,1.32,4.83,11.52-5.08,20.51-14.09,27.46-7,5.36-21.59-.28-21.6,15.1-131.64,45.81-259.24,28.88-382-29.69C431.14,1312.27,374.91,1277.44,329.37,1228.56Z" fill="#9a7b56"/>
</svg>
