<svg id="Layer_1" data-name="Layer 1" xmlns="http://www.w3.org/2000/svg" viewBox="0 0 511.94 511.68">
  <g>
    <path d="M397.23,1.07c-32.3,6.2-57.7,25.6-71.7,54.7-8.2,16.9-8.9,21.1-9.4,55.1-.2,16.4-.7,29.8-1,29.8s-16.9-8.6-36.7-19.1c-41-21.7-42.4-22.4-46.6-21.5-4.5.9-152.2,79.3-156.3,82.9-3.7,3.5-72.5,112-74.4,117.6-1.9,5.3-1.4,10.3,1.4,15.9,6.1,12.2,20.9,16.6,33.1,9.7a43.34,43.34,0,0,1,4.9-2.5c.2,0,.4,15.3.4,33.9v34l2.6,2c3.5,2.7,5.7,2.6,9.1-.3l2.8-2.4.3-45.7.3-45.7,25.6-40.6c14-22.4,26.5-41.7,27.7-42.9,1.9-1.9,122.8-66.3,124.5-66.3.4,0,28.6,14.7,62.6,32.8l61.9,32.7,26.8,42.5,26.8,42.4v160.6h-85v-104h8.4c7,0,8.8-.4,11.7-2.3,5.8-3.8,6.9-7.4,6.9-22.2s-1.1-18.4-6.9-22.2l-3.4-2.3H298c-49.5,0-49.1,0-50.5,5.5-.7,2.9,1.5,7.9,3.9,8.9.9.3,21,.6,44.6.6h42.9v19h-210v-19h46.4c25.5,0,47.2-.3,48.1-.6,2.4-1,4.6-6,3.9-8.9-1.4-5.6-.7-5.5-53.9-5.5-47.1,0-49.1.1-52.3,2-6.2,3.8-7.2,6.8-7.2,22.5,0,12.2.3,14.4,2,17.3,3.3,5.4,7.4,7.2,16.3,7.2h7.7v104H56l-.3-20.5c-.3-19.5-.4-20.6-2.5-22.6a7.79,7.79,0,0,0-10.3-.4c-1.9,1.8-2,3-2,43.8,0,37.7.2,42.2,1.7,44.8,3.8,6.4-14.1,5.9,233.5,5.9,212.5,0,225.5-.1,228.8-1.8a13,13,0,0,0,5.2-5.2c1.7-3.3,1.8-15.4,1.8-209.1,0-227.2.4-214.1-6.4-232a95.23,95.23,0,0,0-21.6-34,97.79,97.79,0,0,0-46.8-27C427.13-.13,407.23-.83,397.23,1.07Zm38.7,16.6a101.07,101.07,0,0,1,30.7,16c16.8,13.8,28.1,35.5,29.9,57.2l.7,7.8H330.93v-5.3c.1-20.4,12.2-44.8,29.4-58.9a85.7,85.7,0,0,1,39.6-18.7C408.53,14.17,427.23,15.27,435.93,17.67Zm61,138.5v42.5h-93.7l-4.9-7.5c-5.9-9.3-7-10-41.1-28l-26.3-13.8v-35.7h166Zm-189.6-2.4c39.6,21,73.1,39.1,74.3,40.2,2,2,66.5,103.4,69.9,110,1.8,3.4,1.1,6-2.3,8.7-3.6,2.8-7.7,2.6-11.2-.8-1.6-1.5-17.4-25.8-35.1-54-19.6-31.1-33.6-52.4-35.6-54-4.5-3.7-128.2-69-132.2-69.8-2.8-.6-10.5,3.3-65.4,32.2-67.3,35.4-68,35.8-71.9,40-1.5,1.6-16.9,25.6-34.4,53.4S30.93,311,30,312a10.87,10.87,0,0,1-5.2,2.3c-2.8.5-4.1.1-6.7-2.1-1.8-1.5-3.2-3.6-3.2-4.8,0-2.6,68.9-112.2,71.8-114.3,4-2.8,145.7-77.4,147.1-77.4C234.53,115.67,267.63,132.77,307.33,153.77Zm189.6,101.9v42h-15.7l-15.8-.1-24-38c-13.2-21-25.1-39.9-26.4-42l-2.3-3.9h84.2Zm0,99.5v42.5l-34.7-.2-34.8-.3-.3-36.8c-.1-20.2,0-36.7.4-36.7a14,14,0,0,1,3.4,2c10.8,7.7,28.6,2.8,34.4-9.5l1.7-3.5h29.9Zm-198,2.9c-.8.7-15.8,14.2-33.3,30l-31.8,28.5-29.7-26.7c-16.3-14.8-31.3-28.2-33.2-30l-3.5-3.1,66.5-.1C290.53,356.67,300.13,356.87,298.93,358.07Zm-110,38.3c18.2,16.3,33,30,33,30.4,0,.7-64.7,59.2-66.1,59.7-.5.2-.9-24.6-.9-59.7,0-33.1.2-60.1.5-60.1S170.83,380.07,188.93,396.37Zm122.8,60.2-.3,30L278.63,457c-18-16.2-32.6-30-32.4-30.6s14.9-14.2,32.8-30.3l32.4-29.2.3,29.9C311.83,413.27,311.83,440.17,311.73,456.57Zm185.2-1.9v42h-70v-84h70Zm-229.5,12.5,32.2,29-32.8.3c-18.1.1-47.7.1-65.9,0l-32.9-.3,32.2-29.2c17.7-16.1,32.8-29.1,33.6-29S249.73,451.17,267.43,467.17Zm-127.5,19v10.5h-84v-21h84Zm272,0v10.5h-85v-9.8c0-5.4.3-10.2.7-10.5s19.5-.7,42.5-.7h41.8Z" fill="#e07a5f"/>
    <path d="M227.93,186.67a49.58,49.58,0,0,0-30.8,15.4c-9.8,10.2-14.3,21.3-14.3,35.6a50.55,50.55,0,0,0,50.6,51,51.17,51.17,0,0,0,51.5-51.5C284.83,206.87,258.23,183.27,227.93,186.67Zm13.5,15.5c5.7.9,14.9,6.1,19.1,10.8a48.32,48.32,0,0,1,6.3,9.6c2.2,4.8,2.6,6.9,2.6,15.1,0,8.4-.3,10.2-2.8,15.2a39,39,0,0,1-17.5,17.5c-5,2.5-6.8,2.8-15.2,2.8-8.2,0-10.3-.4-15.1-2.6a35,35,0,0,1-16.6-15.6c-3.8-7.2-4.4-10-4.4-18.3,0-9.8,3.1-17.2,10-24,3.1-3.1,7.8-6.7,10.4-7.9,4.8-2.3,13.4-4.1,17.2-3.5C236.53,201.47,239.23,201.87,241.43,202.17Z" fill="#e07a5f"/>
  </g>
</svg>
