<svg id="Layer_1" data-name="Layer 1" xmlns="http://www.w3.org/2000/svg" viewBox="0 0 470 469.93">
  <g>
    <path d="M57,2.3A42.71,42.71,0,0,0,31.3,25.7c-2.2,4.7-2.8,7.6-3.1,15.3-.4,10.8,1.4,17.7,6.7,25.5,3,4.5,3,4.5.8,5-19.6,4.3-23.4,6-29.2,12.8C.2,91.7,0,93.2,0,143v44.6l2.5,5C6.4,200.5,12.6,204,22.6,204H28v55.8c0,55.5,0,55.9,2.1,57.8s4.1,1.9,40.4,1.9,38.4-.1,40.4-1.9,2.1-2.3,2.1-57.8V204h5.9c8.8,0,15.6-3.9,19.4-11l2.8-5.4-.3-46.5-.3-46.6-2.7-5.1c-4.7-9-10.8-13.1-23.6-15.9-3.7-.9-7.7-1.8-8.9-2-2.3-.5-2.3-.6,1.1-5.8,5-7.6,6.9-15.2,6.4-25.7-.3-7.3-.9-9.8-3.6-15.2a52.63,52.63,0,0,0-7.1-10.9C91.4,1.8,72.6-3.1,57,2.3ZM84,17.6c21.3,11.6,19.7,42.4-2.7,52.1-5,2.2-16.6,2.2-21.6,0A28.88,28.88,0,0,1,42,43.5C42,30,48.9,20.2,61.7,15.4,67.7,13.1,77.6,14.1,84,17.6Zm-26.9,66c6.1,2.3,19.9,2.3,26.4.1,5-1.6,5.1-1.6,19.8,1.7,15.9,3.6,19.1,5.1,21.9,10.7,1.6,3.1,1.8,7.5,1.8,46.6,0,51.7,1.2,47.3-13.4,47.3-7.7,0-9.8.3-11.7,1.9l-2.4,1.9-.3,56.1L99,306.1l-10.8-.3-10.7-.3L77,249.2c-.5-54.3-.6-56.4-2.4-57.8-4-2.9-8.8-1.2-10.5,3.7-.7,2.2-1.1,20.3-1.1,57V306H42l-.2-56.1-.3-56.1-2.4-1.9c-1.9-1.6-4-1.9-11.7-1.9C12.8,190,14,194.4,14,142.7c0-47.5,0-47.5,6.2-52,2-1.5,25.1-7.7,31.9-8.6A21.42,21.42,0,0,1,57.1,83.6Z" fill="#e07a5f"/>
    <path d="M167.2,1.6c-2.1,1.5-2.2,2-2.2,20.3C165,44,165,44,174.3,44H180V146c0,100.7,0,102,2,104s3.3,2,65,2h63v11.9c0,11.5-.1,11.9-2.3,12.5-3,.7-8.4,6.1-10.8,10.8-3.8,7.4-2,18.9,3.9,25.1,10.3,10.9,28.3,9,35.7-3.7,6.7-11.4,2.7-25.8-8.7-31.7L324,275V252H450.9l2-2.6c2.1-2.7,2.1-3,2.1-104V44h5.5c9.2,0,9.5-.6,9.5-21.8,0-17.4-.1-17.9-2.3-20L465.4,0h-148C185.1,0,169.2.2,167.2,1.6ZM456,22v8H179V14H456ZM441,141v97H194V44H441ZM323.1,290.9c4.8,4.8,3.6,11.1-2.6,13.7-5.8,2.4-11.5-1.4-11.5-7.6C309,288.8,317.4,285.2,323.1,290.9Z" fill="#e07a5f"/>
    <path d="M300.6,68.1c-2.4,1.9-2.6,2.7-2.6,9V84l-3.7,1.5-3.7,1.6-4.7-4.7c-7.5-7.4-8.8-7.1-22.1,6.4-12.8,12.8-12.9,13.4-5.2,21.3l4.5,4.5-1.6,3.7L260,122h-6.9c-6.3,0-7.1.2-9,2.6s-2.1,4-2.1,16.9c0,18,.3,18.6,10.9,19.4,7,.6,7.3.7,8.6,3.7s1.2,3.3-2.2,6.5c-5.2,5-6.7,8.5-5.3,11.9.6,1.5,5.6,7.1,10.9,12.4,11.9,11.6,13.3,12,21,5,5-4.5,5.1-4.5,8.6-3.3l3.5,1.3v6.8c0,10.6.4,10.8,19.4,10.8h15.5l2-2.6c1.6-2.1,2.1-4.1,2.1-9v-6.2l3.5-1.2c3.5-1.2,3.7-1.1,8.5,3.4,7.3,6.9,8.3,6.6,21.1-6.1,13-12.8,13.3-13.8,6.3-21.3-4.5-4.8-4.6-5-3.4-8.5l1.2-3.5h6.2c4.9,0,6.9-.5,9-2.1l2.6-2V141c0-18.8-.1-19-10.7-19-6.2,0-6.4-.1-8-3.4l-1.6-3.5,4.6-5.1c7.1-7.9,6.8-9.1-5.4-21.6-5.6-5.6-11.2-10.5-12.5-10.8-3-.8-5.8.6-10.9,5.4-3.9,3.6-4.1,3.7-7.2,2.4s-3.3-1.5-3.3-7.9c0-5.7-.3-6.9-2.5-9-2.3-2.4-2.9-2.5-16.8-2.5C304.6,66,303,66.2,300.6,68.1ZM323,85.6c0,7.4,1,8.9,7.2,11a73.32,73.32,0,0,1,9.9,4.1c5.4,2.8,6.9,2.4,12.4-2.8l4.1-3.9,3.9,4,3.9,4-4.2,4.3c-2.3,2.3-4.2,5.2-4.2,6.4s1.3,5,3,8.5,3,7.1,3,8.1,1.1,2.9,2.5,4.2c2,2.1,3.4,2.5,8,2.5H378v11h-5.8c-7,0-8.1.9-11.3,9.5a57.9,57.9,0,0,1-3.5,8c-2.5,3.5-1.7,7.2,2.6,11.8l3.9,4.3-3.6,3.7-3.7,3.6-4.3-3.9c-4.6-4.3-8.3-5.1-11.8-2.6a57.9,57.9,0,0,1-8,3.5c-8.6,3.2-9.5,4.3-9.5,11.3V202H312v-5.5c0-4.6-.4-6-2.5-8-1.3-1.4-3.2-2.5-4.2-2.5s-4.7-1.4-8.1-3-7.3-3-8.5-3-4.1,1.9-6.4,4.2l-4.3,4.2-4-3.9-3.9-3.9,4.4-4.7c2.5-2.7,4.5-5.4,4.5-6.1a18,18,0,0,0-2-5.3c-1.1-2.2-3-6.5-4.1-9.5-2.9-7.7-3.3-8-10.5-8H256V136h5.4c6.6,0,9.7-2.2,11.5-8.2a57,57,0,0,1,3.8-9.1c2.9-5.7,2.5-7.7-2.5-13l-3.6-3.7,3.6-3.7,3.7-3.6,3.9,3.5c5.5,5,7.2,5.3,12.9,2.5a57,57,0,0,1,9.1-3.8c6-1.8,8.2-4.9,8.2-11.5V80h11Z" fill="#e07a5f"/>
    <path d="M311.9,109.1c-10.3,1.5-19.8,9-24.4,19.2-2.4,5.1-2.7,6.8-2.3,14,.6,13.5,6.8,23,18.7,28.6,8.1,3.8,19.3,3.7,27.2-.2a36.93,36.93,0,0,0,16.2-16.5c3.3-7.1,3.1-18.8-.4-26.2a43.14,43.14,0,0,0-5.7-9.1C334.8,111.6,322.6,107.5,311.9,109.1Zm16.6,17.3c11.5,8.8,9,26.3-4.7,32.1-5.1,2.1-9.4,1.9-14.5-.6-6.2-3-9.5-7.8-10.1-14.4-.6-6.9.1-9.6,3.5-13.6,4.8-5.6,8-7,15.4-6.7C323.5,123.5,325.4,124.1,328.5,126.4Z" fill="#e07a5f"/>
    <path d="M60.1,337.6a43.45,43.45,0,0,0-28.2,23.1c-2.8,5.8-3.4,8.2-3.7,15.9-.5,10.9,1.2,17.8,6.2,25.3,1.9,2.8,3.1,5.2,2.8,5.4s-4.7,1.2-9.5,2.2c-11.1,2.3-18,6.3-22.4,12.8C.7,429.2,0,432.6,0,450.1c0,15,.1,15.6,2.3,17.7,3,2.8,6.8,2.8,9.5-.1,2.1-2.2,2.2-3.3,2.2-17.3,0-22.7.8-23.6,23.7-28.8,14.8-3.3,15.3-3.3,19.5-1.8,5.8,2.2,20.8,2.2,26.6,0,4.1-1.5,4.7-1.5,19.5,1.8,22.9,5.1,23.7,6.1,23.7,29,0,14.4.1,15.1,2.3,17.2,3,2.9,6.2,2.8,9.2-.3,2.4-2.3,2.5-2.8,2.5-17.7,0-17.2-.7-20.6-5.3-27.5-4.4-6.5-11.3-10.5-22.4-12.8-4.8-1-9.1-2-9.5-2.2s.6-2.2,2.2-4.5c4.1-5.6,7-15.5,7-23.8a42,42,0,0,0-22.2-37.5C80.7,336.2,70.2,334.9,60.1,337.6Zm21.6,14.9c6.3,2.6,11.1,7.3,14.4,14,2.8,5.8,3.1,7.1,2.7,13.7-.6,11.8-5.5,19.4-16.1,25-3.3,1.8-5.9,2.3-12.2,2.3-7,0-8.7-.4-13.4-3C47.2,399,42,390.3,42,379a26.16,26.16,0,0,1,5.1-16.6C54.3,351.8,69.5,347.4,81.7,352.5Z" fill="#e07a5f"/>
    <path d="M226,337c-20.2,4.3-35.4,24.6-33.7,45,.6,7.5,3.6,16.1,7.2,21,1.4,1.9,2.2,3.7,1.8,4.1s-4.4,1.4-8.8,2.4a83.69,83.69,0,0,0-11.1,3c-5,2.1-11.5,8.6-14,14-2.2,4.6-2.4,6.3-2.4,22.7,0,17.1.1,17.7,2.2,19.2a6.83,6.83,0,0,0,8.9-.3c2.3-1.9,2.4-2.6,2.9-18.9.5-16.5.6-17.1,3-19.7,3.7-4,5.1-4.5,20.9-8,13.8-3.1,14.7-3.2,18.5-1.7,5.5,2.1,21.7,2.1,27.2,0,3.8-1.5,4.7-1.4,18.5,1.7,15.8,3.5,17.2,4,20.9,8,2.4,2.6,2.5,3.2,3,19.7.5,16.3.6,17,2.9,18.9,3,2.5,6.6,2.4,9.1-.1,1.8-1.8,2-3.3,2-19.3s-.2-17.6-2.4-22.2c-2.5-5.4-9-11.9-14-14a83.69,83.69,0,0,0-11.1-3c-4.4-1-8.3-2-8.7-2.4s.9-3.1,2.7-6.1c13.8-22.2,3.4-52.8-21.1-61.9C243.9,336.6,232.5,335.7,226,337Zm20.7,16a28.76,28.76,0,0,1,15.8,34.5c-2.3,8-10.7,16.6-18.5,18.9-11.6,3.4-20.6,1.2-29.1-7.3-4.6-4.6-6.1-7-7.4-11.6C200.6,363.8,224.1,343,246.7,353Z" fill="#e07a5f"/>
    <path d="M389.3,337.5A44.52,44.52,0,0,0,364.9,354c-10.2,13.6-10.6,34.9-.9,48.7,1.6,2.3,2.6,4.4,2.2,4.6s-4.7,1.2-9.5,2.2c-11.1,2.3-18,6.3-22.4,12.8-4.6,6.9-5.3,10.3-5.3,27.5,0,14.9.1,15.4,2.5,17.7,3,3.1,6.5,3.2,9.3.2,2.1-2.2,2.2-3.3,2.2-17.3,0-22.7.8-23.6,23.7-28.8,14.8-3.3,15.3-3.3,19.5-1.8,5.8,2.2,20.8,2.2,26.6,0,4.1-1.5,4.7-1.5,19.5,1.8,22.9,5.1,23.7,6.1,23.7,29,0,14.4.1,15.1,2.3,17.2,3,2.8,6.8,2.8,9.5-.1,2.1-2.2,2.2-3.3,2.2-17.8,0-17.3-.7-20.7-5.3-27.6-4.4-6.5-11.3-10.5-22.4-12.8-4.8-1-9.1-2-9.5-2.2s.8-2.5,2.6-5.1c5.1-7.6,6.9-14.8,6.4-25.5-.3-7.8-.9-10.2-3.7-16C429.3,342.4,408.3,332.4,389.3,337.5Zm21.4,15a28.93,28.93,0,0,1,17.3,26c0,11.8-5,20.4-15.1,26-4.7,2.6-6.4,3-13.4,3s-8.6-.4-13.5-3.1c-15.7-8.9-19.8-28.3-9.1-43.3C383.6,351.7,399.3,347.7,410.7,352.5Z" fill="#e07a5f"/>
  </g>
</svg>
